<svg width="141" height="47" viewBox="0 0 141 47" fill="none" xmlns="http://www.w3.org/2000/svg">
<path d="M129.122 0.000152412H11.1785C10.7486 0.000152412 10.3238 0.000152412 9.89502 0.00249722C9.53609 0.00484203 9.18002 0.0116537 8.81764 0.0173867C8.03039 0.0266508 7.24499 0.0959099 6.46826 0.224562C5.69263 0.356015 4.9413 0.603841 4.23967 0.959659C3.5389 1.31849 2.89858 1.78475 2.34196 2.34152C1.78241 2.89674 1.31598 3.53848 0.960608 4.24209C0.604257 4.9443 0.357161 5.69679 0.227857 6.47355C0.0973223 7.24934 0.0270806 8.03407 0.0177619 8.8207C0.00688201 9.18016 0.00573305 9.54082 0 9.90032V36.9996C0.00573305 37.3636 0.00688201 37.7162 0.0177619 38.0804C0.0270835 38.867 0.0973252 39.6517 0.227857 40.4274C0.356804 41.2046 0.603914 41.9576 0.960608 42.66C1.31582 43.3614 1.78231 44.0005 2.34196 44.5526C2.89647 45.1119 3.5372 45.5785 4.23967 45.9346C4.94129 46.2913 5.69254 46.5406 6.46826 46.6741C7.24512 46.8017 8.03044 46.871 8.81764 46.8814C9.18002 46.8894 9.53609 46.8939 9.89502 46.8939C10.3238 46.8963 10.7486 46.8963 11.1785 46.8963H129.122C129.544 46.8963 129.972 46.8963 130.393 46.8939C130.75 46.8939 131.117 46.8894 131.474 46.8814C132.26 46.8716 133.044 46.8023 133.819 46.6741C134.597 46.5397 135.351 46.2905 136.056 45.9346C136.758 45.5783 137.398 45.1117 137.952 44.5526C138.51 43.9984 138.978 43.3597 139.337 42.66C139.691 41.9571 139.936 41.2042 140.063 40.4274C140.194 39.6516 140.267 38.8671 140.281 38.0804C140.285 37.7162 140.285 37.3636 140.285 36.9996C140.295 36.5736 140.295 36.15 140.295 35.7172V11.1803C140.295 10.751 140.295 10.3251 140.285 9.90032C140.285 9.54082 140.285 9.18016 140.281 8.82066C140.267 8.03395 140.194 7.2494 140.063 6.47351C139.936 5.69719 139.691 4.94477 139.337 4.24205C138.614 2.83174 137.466 1.68375 136.056 0.959553C135.351 0.604605 134.597 0.356845 133.819 0.224457C133.044 0.0952376 132.26 0.0259544 131.474 0.0172226C131.117 0.0115013 130.75 0.00463099 130.393 0.00234481C129.972 0 129.544 0 129.122 0V0.000152412Z" fill="#A6A6A6"/>
<path d="M9.90042 45.8676C9.54321 45.8676 9.19463 45.863 8.84023 45.8551C8.10605 45.8455 7.37358 45.7816 6.64884 45.6639C5.97306 45.5475 5.3184 45.331 4.70647 45.0215C4.10016 44.7146 3.54715 44.3122 3.06863 43.8296C2.58318 43.3528 2.17903 42.7997 1.87218 42.1924C1.56195 41.5811 1.34725 40.9258 1.23556 40.2495C1.11495 39.5227 1.04969 38.7878 1.04036 38.0512C1.03292 37.8039 1.02319 36.9807 1.02319 36.9807V9.89751C1.02319 9.89751 1.03356 9.0869 1.04042 8.84875C1.04936 8.11328 1.11423 7.37956 1.23448 6.65393C1.34638 5.97572 1.56124 5.31858 1.87164 4.70528C2.17736 4.09834 2.57927 3.54487 3.06179 3.06632C3.54377 2.58322 4.09855 2.17872 4.7059 1.86757C5.31642 1.55909 5.96984 1.34412 6.64426 1.22985C7.37138 1.11093 8.10639 1.04664 8.84311 1.03751L9.90099 1.02319H130.387L131.458 1.03808C132.188 1.04676 132.916 1.11048 133.636 1.2287C134.318 1.3444 134.978 1.56088 135.595 1.87101C136.812 2.49806 137.802 3.49012 138.427 4.70814C138.732 5.31721 138.944 5.96898 139.054 6.64134C139.176 7.37292 139.244 8.11241 139.258 8.85391C139.261 9.18593 139.261 9.54258 139.261 9.89751C139.271 10.3372 139.271 10.7556 139.271 11.1775V35.7144C139.271 36.1403 139.271 36.5559 139.261 36.9749C139.261 37.3562 139.261 37.7055 139.257 38.0649C139.243 38.7932 139.176 39.5195 139.057 40.238C138.947 40.9192 138.734 41.5796 138.423 42.1959C138.114 42.7966 137.713 43.3449 137.233 43.8205C136.754 44.3056 136.2 44.7104 135.592 45.0193C134.976 45.3311 134.317 45.5484 133.636 45.6639C132.912 45.7822 132.179 45.8461 131.445 45.8551C131.102 45.863 130.742 45.8676 130.393 45.8676L129.122 45.87L9.90042 45.8676Z" fill="black"/>
<path d="M29.0396 23.7828C29.0522 22.8043 29.3121 21.8448 29.7952 20.9937C30.2782 20.1426 30.9687 19.4275 31.8024 18.915C31.2728 18.1586 30.5741 17.5361 29.7618 17.097C28.9496 16.6578 28.0461 16.4142 27.1232 16.3853C25.1544 16.1786 23.2458 17.5633 22.2426 17.5633C21.2199 17.5633 19.6753 16.4058 18.012 16.44C16.9361 16.4748 15.8875 16.7876 14.9685 17.3481C14.0495 17.9086 13.2913 18.6976 12.7679 19.6382C10.5005 23.5639 12.1918 29.3333 14.3638 32.5066C15.4505 34.0604 16.7205 35.7961 18.3823 35.7346C20.0085 35.6671 20.6159 34.6976 22.5788 34.6976C24.5236 34.6976 25.0934 35.7346 26.7889 35.6954C28.5339 35.6671 29.6333 34.1347 30.6819 32.5661C31.4627 31.4589 32.0635 30.2353 32.4621 28.9404C31.4483 28.5117 30.5832 27.7939 29.9746 26.8768C29.3659 25.9596 29.0408 24.8836 29.0396 23.7828V23.7828Z" fill="white"/>
<path d="M25.839 14.3043C26.7904 13.1622 27.2592 11.6941 27.1457 10.2119C25.6921 10.3646 24.3494 11.0593 23.3851 12.1576C22.9136 12.6942 22.5525 13.3184 22.3224 13.9947C22.0924 14.6709 21.9978 15.3858 22.0442 16.0986C22.7712 16.106 23.4905 15.9485 24.1478 15.6377C24.8052 15.3269 25.3834 14.871 25.839 14.3043Z" fill="white"/>
<path d="M49.5896 31.8169H44.0402L42.7075 35.752H40.3569L45.6133 21.1931H48.0554L53.3118 35.752H50.9211L49.5896 31.8169ZM44.6149 30.0011H49.0138L46.8453 23.6147H46.7846L44.6149 30.0011Z" fill="white"/>
<path d="M64.6649 30.4438C64.6649 33.7424 62.8995 35.8616 60.2352 35.8616C59.5603 35.8969 58.8891 35.7415 58.2985 35.413C57.7078 35.0846 57.2216 34.5965 56.8955 34.0045H56.8451V39.262H54.6663V25.136H56.7752V26.9014H56.8153C57.1564 26.3124 57.6509 25.8268 58.246 25.4963C58.8412 25.1659 59.5148 25.003 60.1951 25.0249C62.8891 25.0249 64.6649 27.1545 64.6649 30.4438ZM62.4254 30.4438C62.4254 28.2948 61.3149 26.882 59.6204 26.882C57.9557 26.882 56.8359 28.3246 56.8359 30.4438C56.8359 32.5826 57.9557 34.0149 59.6204 34.0149C61.3149 34.0149 62.4254 32.6123 62.4254 30.4438Z" fill="white"/>
<path d="M76.3475 30.4438C76.3475 33.7424 74.5821 35.8616 71.9178 35.8616C71.2429 35.8969 70.5717 35.7415 69.9811 35.413C69.3904 35.0846 68.9042 34.5965 68.5781 34.0045H68.5277V39.262H66.3489V25.136H68.4578V26.9014H68.4979C68.839 26.3123 69.3334 25.8267 69.9286 25.4963C70.5237 25.1659 71.1973 25.003 71.8777 25.0249C74.5718 25.0249 76.3475 27.1545 76.3475 30.4438ZM74.1081 30.4438C74.1081 28.2948 72.9975 26.882 71.303 26.882C69.6383 26.882 68.5185 28.3246 68.5185 30.4438C68.5185 32.5826 69.6383 34.0149 71.303 34.0149C72.9975 34.0149 74.1081 32.6123 74.1081 30.4438H74.1081Z" fill="white"/>
<path d="M84.0707 31.6895C84.2321 33.1333 85.6347 34.0812 87.5513 34.0812C89.3877 34.0812 90.709 33.1332 90.709 31.8314C90.709 30.7014 89.9121 30.0248 88.0253 29.5611L86.1384 29.1065C83.465 28.4608 82.2239 27.2105 82.2239 25.1817C82.2239 22.6697 84.413 20.9443 87.5215 20.9443C90.5979 20.9443 92.7068 22.6697 92.7778 25.1817H90.5784C90.4467 23.7288 89.2457 22.8518 87.4905 22.8518C85.7354 22.8518 84.5343 23.7391 84.5343 25.0306C84.5343 26.0599 85.3015 26.6655 87.178 27.1292L88.782 27.523C91.7691 28.2295 93.0102 29.4294 93.0102 31.5589C93.0102 34.2827 90.8406 35.9886 87.3898 35.9886C84.1611 35.9886 81.9812 34.3227 81.8403 31.6894L84.0707 31.6895Z" fill="white"/>
<path d="M97.7117 22.6172V25.1292H99.7302V26.8546H97.7117V32.7063C97.7117 33.6153 98.1159 34.039 99.0032 34.039C99.2428 34.0348 99.482 34.018 99.7199 33.9885V35.7036C99.321 35.7782 98.9155 35.8119 98.5097 35.8044C96.3607 35.8044 95.5226 34.9972 95.5226 32.9386V26.8546H93.9792V25.1292H95.5226V22.6172H97.7117Z" fill="white"/>
<path d="M100.899 30.4406C100.899 27.1008 102.866 25.0022 105.933 25.0022C109.011 25.0022 110.969 27.1008 110.969 30.4406C110.969 33.7895 109.021 35.879 105.933 35.879C102.846 35.879 100.899 33.7895 100.899 30.4406ZM108.749 30.4406C108.749 28.1496 107.699 26.7974 105.933 26.7974C104.168 26.7974 103.119 28.1599 103.119 30.4406C103.119 32.7407 104.168 34.0826 105.933 34.0826C107.699 34.0826 108.748 32.7407 108.748 30.4406H108.749Z" fill="white"/>
<path d="M112.761 25.1359H114.839V26.9425H114.89C115.03 26.3783 115.361 25.8796 115.826 25.5304C116.291 25.1811 116.862 25.0026 117.443 25.0248C117.694 25.0239 117.944 25.0512 118.189 25.1061V27.1441C117.872 27.0472 117.542 27.0027 117.21 27.0124C116.894 26.9996 116.578 27.0554 116.285 27.176C115.992 27.2966 115.729 27.4792 115.513 27.7112C115.298 27.9432 115.135 28.2191 115.036 28.5201C114.937 28.821 114.904 29.1398 114.94 29.4545V35.7505H112.761L112.761 25.1359Z" fill="white"/>
<path d="M128.233 32.6297C127.94 34.5566 126.063 35.879 123.662 35.879C120.574 35.879 118.658 33.8101 118.658 30.491C118.658 27.1615 120.585 25.0022 123.571 25.0022C126.507 25.0022 128.354 27.0195 128.354 30.2379V30.9844H120.857V31.1161C120.823 31.5067 120.871 31.9003 121.001 32.2706C121.13 32.6409 121.336 32.9794 121.606 33.2638C121.876 33.5482 122.204 33.7718 122.567 33.9199C122.93 34.068 123.321 34.1371 123.713 34.1227C124.227 34.1709 124.744 34.0517 125.186 33.7827C125.627 33.5137 125.97 33.1093 126.164 32.6297L128.233 32.6297ZM120.867 29.4617H126.174C126.194 29.1104 126.14 28.7589 126.018 28.4292C125.895 28.0996 125.705 27.7988 125.461 27.5458C125.217 27.2929 124.922 27.0932 124.597 26.9592C124.272 26.8253 123.922 26.7601 123.571 26.7677C123.216 26.7656 122.864 26.8337 122.536 26.9682C122.207 27.1028 121.909 27.301 121.658 27.5515C121.406 27.8019 121.207 28.0997 121.072 28.4275C120.936 28.7554 120.867 29.1069 120.867 29.4617V29.4617Z" fill="white"/>
<path d="M44.3528 10.2418C44.8096 10.209 45.2679 10.2781 45.6948 10.4439C46.1217 10.6097 46.5065 10.8682 46.8214 11.2007C47.1362 11.5332 47.3734 11.9315 47.5157 12.3668C47.6581 12.802 47.702 13.2635 47.6444 13.7178C47.6444 15.9527 46.4365 17.2374 44.3528 17.2374H41.8259V10.2418H44.3528ZM42.9125 16.248H44.2314C44.5578 16.2676 44.8845 16.214 45.1876 16.0914C45.4907 15.9687 45.7626 15.78 45.9836 15.539C46.2046 15.298 46.3691 15.0108 46.4651 14.6982C46.561 14.3856 46.5861 14.0556 46.5384 13.7321C46.5826 13.4099 46.555 13.0818 46.4576 12.7716C46.3601 12.4613 46.1953 12.1764 45.9748 11.9373C45.7543 11.6982 45.4836 11.5108 45.1822 11.3886C44.8808 11.2664 44.5561 11.2124 44.2314 11.2304H42.9125V16.248Z" fill="white"/>
<path d="M48.8748 14.5976C48.8416 14.2506 48.8813 13.9006 48.9913 13.5699C49.1014 13.2392 49.2793 12.9351 49.5137 12.6772C49.7481 12.4193 50.0338 12.2133 50.3525 12.0723C50.6713 11.9312 51.0159 11.8584 51.3645 11.8584C51.713 11.8584 52.0576 11.9312 52.3764 12.0723C52.6951 12.2133 52.9808 12.4193 53.2152 12.6772C53.4496 12.9351 53.6276 13.2392 53.7376 13.5699C53.8476 13.9006 53.8873 14.2506 53.8541 14.5976C53.8879 14.9449 53.8487 15.2954 53.739 15.6266C53.6292 15.9579 53.4514 16.2625 53.217 16.5209C52.9825 16.7793 52.6965 16.9858 52.3775 17.1271C52.0585 17.2684 51.7134 17.3414 51.3645 17.3414C51.0155 17.3414 50.6704 17.2684 50.3514 17.1271C50.0324 16.9858 49.7464 16.7793 49.512 16.5209C49.2775 16.2625 49.0997 15.9579 48.9899 15.6266C48.8802 15.2954 48.841 14.9449 48.8748 14.5976V14.5976ZM52.7824 14.5976C52.7824 13.4532 52.2684 12.784 51.3662 12.784C50.4605 12.784 49.9511 13.4532 49.9511 14.5976C49.9511 15.7511 50.4606 16.4152 51.3662 16.4152C52.2684 16.4151 52.7824 15.7465 52.7824 14.5976H52.7824Z" fill="white"/>
<path d="M60.4672 17.2346H59.3864L58.2953 13.3464H58.2128L57.1263 17.2346H56.0558L54.6006 11.9553H55.6574L56.6031 15.9837H56.6809L57.7663 11.9553H58.7658L59.8512 15.9837H59.9337L60.8748 11.9553H61.9167L60.4672 17.2346Z" fill="white"/>
<path d="M63.1379 11.9518H64.1409V12.7905H64.2188C64.3508 12.4893 64.5736 12.2368 64.856 12.0682C65.1384 11.8996 65.4664 11.8233 65.7942 11.8499C66.051 11.8306 66.309 11.8693 66.5488 11.9632C66.7887 12.0572 67.0044 12.2038 67.1799 12.3924C67.3554 12.581 67.4862 12.8066 67.5626 13.0526C67.6391 13.2986 67.6592 13.5586 67.6215 13.8135V17.231H66.5796V14.0751C66.5796 13.2267 66.2109 12.8048 65.4404 12.8048C65.266 12.7967 65.0919 12.8264 64.93 12.8918C64.7682 12.9573 64.6224 13.057 64.5026 13.184C64.3829 13.3111 64.2921 13.4625 64.2364 13.628C64.1806 13.7935 64.1613 13.969 64.1798 14.1426V17.2311H63.1379L63.1379 11.9518Z" fill="white"/>
<path d="M69.2834 9.89526H70.3253V17.2354H69.2834V9.89526Z" fill="white"/>
<path d="M71.7769 14.5977C71.7437 14.2507 71.7834 13.9007 71.8935 13.5699C72.0035 13.2392 72.1815 12.9352 72.4159 12.6773C72.6503 12.4193 72.9361 12.2133 73.2548 12.0723C73.5736 11.9312 73.9183 11.8584 74.2668 11.8584C74.6154 11.8584 74.96 11.9312 75.2788 12.0723C75.5975 12.2133 75.8833 12.4193 76.1177 12.6773C76.3522 12.9352 76.5301 13.2392 76.6401 13.5699C76.7502 13.9007 76.7899 14.2507 76.7567 14.5977C76.7905 14.945 76.7513 15.2955 76.6415 15.6267C76.5317 15.958 76.3539 16.2626 76.1194 16.521C75.8849 16.7794 75.5989 16.9859 75.2799 17.1272C74.9608 17.2685 74.6158 17.3415 74.2668 17.3415C73.9179 17.3415 73.5728 17.2685 73.2537 17.1272C72.9347 16.9859 72.6487 16.7794 72.4142 16.521C72.1797 16.2626 72.0019 15.958 71.8921 15.6267C71.7824 15.2955 71.7431 14.945 71.7769 14.5977V14.5977ZM75.6845 14.5977C75.6845 13.4533 75.1704 12.7841 74.2682 12.7841C73.3626 12.7841 72.8532 13.4533 72.8532 14.5977C72.8532 15.7512 73.3626 16.4153 74.2682 16.4153C75.1704 16.4152 75.6845 15.7466 75.6845 14.5977H75.6845Z" fill="white"/>
<path d="M77.8484 15.7466C77.8484 14.7963 78.556 14.2484 79.8119 14.1706L81.2419 14.0881V13.6325C81.2419 13.0749 80.8733 12.76 80.1611 12.76C79.5795 12.76 79.1765 12.9736 79.0609 13.3468H78.0522C78.1587 12.44 79.0116 11.8584 80.2092 11.8584C81.5328 11.8584 82.2792 12.5173 82.2792 13.6325V17.2395H81.2763V16.4976H81.1939C81.0265 16.7638 80.7916 16.9807 80.513 17.1263C80.2344 17.272 79.9222 17.341 79.6081 17.3265C79.3865 17.3496 79.1625 17.3259 78.9506 17.2571C78.7387 17.1883 78.5435 17.0758 78.3777 16.927C78.2119 16.7781 78.0792 16.5962 77.988 16.3928C77.8968 16.1895 77.8493 15.9694 77.8484 15.7466V15.7466ZM81.2419 15.2955V14.8541L79.9528 14.9365C79.2257 14.9852 78.896 15.2325 78.896 15.6979C78.896 16.173 79.3082 16.4495 79.8749 16.4495C80.041 16.4663 80.2088 16.4496 80.3682 16.4002C80.5277 16.3509 80.6756 16.27 80.8031 16.1623C80.9306 16.0546 81.0352 15.9224 81.1106 15.7735C81.186 15.6245 81.2307 15.462 81.2419 15.2955V15.2955Z" fill="white"/>
<path d="M83.655 14.5935C83.655 12.9253 84.5126 11.8686 85.8464 11.8686C86.1763 11.8534 86.5038 11.9324 86.7905 12.0964C87.0772 12.2604 87.3112 12.5026 87.4653 12.7948H87.5432V9.89526H88.5851V17.2354H87.5867V16.4013H87.5043C87.3383 16.6915 87.096 16.9307 86.8038 17.093C86.5116 17.2554 86.1805 17.3347 85.8464 17.3224C84.5034 17.3224 83.655 16.2656 83.655 14.5935ZM84.7313 14.5935C84.7313 15.7132 85.2591 16.387 86.1419 16.387C87.02 16.387 87.5627 15.7035 87.5627 14.5981C87.5627 13.4978 87.0143 12.8045 86.1419 12.8045C85.2648 12.8045 84.7313 13.4829 84.7313 14.5935H84.7313Z" fill="white"/>
<path d="M92.8953 14.5976C92.8621 14.2506 92.9018 13.9006 93.0118 13.5699C93.1219 13.2392 93.2998 12.9351 93.5342 12.6772C93.7686 12.4193 94.0543 12.2133 94.373 12.0723C94.6918 11.9312 95.0364 11.8584 95.385 11.8584C95.7335 11.8584 96.0782 11.9312 96.3969 12.0723C96.7156 12.2133 97.0013 12.4193 97.2357 12.6772C97.4701 12.9351 97.6481 13.2392 97.7581 13.5699C97.8681 13.9006 97.9078 14.2506 97.8746 14.5976C97.9084 14.9449 97.8692 15.2954 97.7595 15.6266C97.6497 15.9579 97.4719 16.2625 97.2375 16.5209C97.003 16.7793 96.717 16.9858 96.398 17.1271C96.079 17.2684 95.7339 17.3414 95.385 17.3414C95.036 17.3414 94.6909 17.2684 94.3719 17.1271C94.0529 16.9858 93.7669 16.7793 93.5325 16.5209C93.298 16.2625 93.1202 15.9579 93.0104 15.6266C92.9007 15.2954 92.8615 14.9449 92.8953 14.5976V14.5976ZM96.8029 14.5976C96.8029 13.4532 96.2889 12.784 95.3867 12.784C94.481 12.784 93.9716 13.4532 93.9716 14.5976C93.9716 15.7511 94.4811 16.4152 95.3867 16.4152C96.2889 16.4151 96.8029 15.7465 96.8029 14.5976Z" fill="white"/>
<path d="M99.271 11.9518H100.274V12.7905H100.352C100.484 12.4893 100.707 12.2368 100.989 12.0682C101.271 11.8996 101.599 11.8233 101.927 11.8499C102.184 11.8306 102.442 11.8693 102.682 11.9632C102.922 12.0572 103.137 12.2038 103.313 12.3924C103.488 12.581 103.619 12.8066 103.696 13.0526C103.772 13.2986 103.792 13.5586 103.755 13.8135V17.231H102.713V14.0751C102.713 13.2267 102.344 12.8048 101.573 12.8048C101.399 12.7967 101.225 12.8264 101.063 12.8918C100.901 12.9573 100.755 13.057 100.636 13.184C100.516 13.3111 100.425 13.4625 100.369 13.628C100.314 13.7935 100.294 13.969 100.313 14.1426V17.2311H99.271V11.9518Z" fill="white"/>
<path d="M109.648 10.6487V11.9871H110.792V12.8647H109.648V15.5793C109.648 16.1323 109.876 16.3745 110.394 16.3745C110.527 16.374 110.66 16.366 110.792 16.3504V17.2183C110.604 17.2517 110.415 17.2695 110.225 17.2715C109.066 17.2715 108.605 16.8639 108.605 15.8461V12.8646H107.767V11.987H108.605V10.6487H109.648Z" fill="white"/>
<path d="M112.205 9.89526H113.237V12.8045H113.32C113.458 12.5005 113.687 12.2466 113.975 12.0773C114.263 11.9081 114.596 11.8318 114.929 11.8588C115.185 11.8449 115.44 11.8876 115.678 11.9838C115.915 12.0799 116.128 12.2273 116.301 12.4153C116.475 12.6032 116.605 12.8272 116.682 13.0713C116.759 13.3153 116.782 13.5733 116.748 13.8269V17.2354H115.705V14.084C115.705 13.2407 115.312 12.8137 114.576 12.8137C114.397 12.799 114.217 12.8236 114.048 12.8858C113.879 12.948 113.727 13.0463 113.6 13.1738C113.473 13.3012 113.376 13.4549 113.315 13.6238C113.254 13.7928 113.231 13.9731 113.247 14.1521V17.2354H112.205L112.205 9.89526Z" fill="white"/>
<path d="M122.829 15.8142C122.688 16.2967 122.381 16.714 121.963 16.9933C121.545 17.2725 121.042 17.3957 120.542 17.3415C120.194 17.3507 119.848 17.2841 119.529 17.1463C119.209 17.0085 118.924 16.8028 118.692 16.5436C118.46 16.2843 118.287 15.9777 118.185 15.6449C118.084 15.3122 118.056 14.9613 118.103 14.6166C118.057 14.2709 118.085 13.9192 118.187 13.5855C118.288 13.2517 118.46 12.9437 118.691 12.6821C118.922 12.4206 119.206 12.2117 119.524 12.0696C119.843 11.9275 120.188 11.8555 120.537 11.8585C122.006 11.8585 122.892 12.8621 122.892 14.5198V14.8834H119.164V14.9418C119.148 15.1355 119.172 15.3305 119.236 15.5143C119.299 15.6981 119.401 15.8666 119.533 16.0089C119.665 16.1513 119.826 16.2645 120.005 16.3412C120.183 16.4178 120.376 16.4563 120.57 16.4542C120.82 16.4841 121.072 16.4392 121.296 16.3253C121.519 16.2113 121.704 16.0334 121.826 15.8142L122.829 15.8142ZM119.164 14.1128H121.831C121.844 13.9357 121.82 13.7577 121.76 13.5904C121.7 13.423 121.606 13.2701 121.484 13.1413C121.362 13.0125 121.214 12.9107 121.05 12.8425C120.886 12.7743 120.709 12.7412 120.531 12.7452C120.351 12.743 120.172 12.7768 120.005 12.8447C119.839 12.9127 119.687 13.0133 119.56 13.1408C119.432 13.2682 119.332 13.4199 119.264 13.5869C119.196 13.7538 119.162 13.9326 119.164 14.1128H119.164Z" fill="white"/>
</svg>
