<svg width="63" height="26" viewBox="0 0 63 26" fill="none" xmlns="http://www.w3.org/2000/svg">
<path d="M29.6588 12.7483V19.8839H27.3943V2.26318H33.3975C34.919 2.26318 36.2163 2.77039 37.2779 3.78469C38.363 4.79898 38.9055 6.03736 38.9055 7.49983C38.9055 8.99772 38.363 10.2361 37.2779 11.2386C36.2281 12.2411 34.9308 12.7365 33.3975 12.7365H29.6588V12.7483ZM29.6588 4.43333V10.5781H33.4448C34.3411 10.5781 35.096 10.2715 35.6856 9.66998C36.2872 9.06844 36.5938 8.33727 36.5938 7.51164C36.5938 6.69782 36.2872 5.97833 35.6856 5.37691C35.0959 4.75176 34.3529 4.44514 33.4448 4.44514H29.6588V4.43333Z" fill="#383E41"/>
<path d="M44.8342 7.43506C46.509 7.43506 47.83 7.88323 48.7971 8.77958C49.7643 9.67593 50.2477 10.9025 50.2477 12.4594V19.8898H48.0894V18.2151H47.9951C47.0633 19.595 45.8131 20.2791 44.2563 20.2791C42.9236 20.2791 41.8148 19.8898 40.9185 19.0996C40.0221 18.3094 39.574 17.3304 39.574 16.1511C39.574 14.9009 40.0458 13.9102 40.9893 13.1789C41.9329 12.4359 43.1949 12.0703 44.7635 12.0703C46.108 12.0703 47.2168 12.318 48.0777 12.8133V12.2944C48.0777 11.5042 47.7711 10.8437 47.1459 10.2894C46.5208 9.73508 45.7896 9.46377 44.9522 9.46377C43.6902 9.46377 42.6877 9.99447 41.9564 11.0678L39.9631 9.81761C41.0601 8.22527 42.6877 7.43506 44.8342 7.43506ZM41.9093 16.1864C41.9093 16.7761 42.157 17.2715 42.6641 17.6607C43.1595 18.0499 43.7492 18.2504 44.4215 18.2504C45.3769 18.2504 46.226 17.8966 46.9691 17.1889C47.7122 16.4812 48.0895 15.6556 48.0895 14.7003C47.3818 14.146 46.403 13.8629 45.141 13.8629C44.221 13.8629 43.4544 14.087 42.8411 14.5233C42.2159 14.9833 41.9093 15.5377 41.9093 16.1864Z" fill="#383E41"/>
<path d="M62.5575 7.81787L55.0091 25.1791H52.6738L55.4808 19.105L50.5037 7.81787H52.9686L56.5541 16.4749H56.6014L60.0924 7.81787H62.5575Z" fill="#383E41"/>
<path d="M20.4566 9.19287H10.9646V13.085L16.4312 13.0862C16.2096 14.3812 15.496 15.4851 14.4027 16.2211V16.2219C14.403 16.2216 14.4035 16.2214 14.4039 16.2211L14.3054 18.5474L17.6579 18.7451C17.6575 18.7455 17.657 18.746 17.6566 18.7463H17.6567C19.5568 16.9878 20.6454 14.3883 20.6454 11.3171C20.6453 10.5787 20.5793 9.87224 20.4566 9.19287Z" fill="#0085F7"/>
<path d="M14.3993 16.2199C14.399 16.2201 14.3985 16.2204 14.3981 16.2206C13.4925 16.8311 12.3264 17.1881 10.9625 17.1881C8.32646 17.1881 6.09029 15.412 5.28948 13.0177H5.28911C5.28923 13.0181 5.28936 13.0186 5.28948 13.0189L2.49068 12.5757L1.93335 15.6227C3.59653 18.9223 7.01422 21.1864 10.9626 21.1864C13.6911 21.1864 15.9834 20.2893 17.6522 18.7449C17.6527 18.7446 17.6532 18.7442 17.6535 18.7437L14.3993 16.2199Z" fill="#00A94B"/>
<path d="M4.97805 11.0817C4.97805 10.4095 5.09009 9.7596 5.29418 9.14866L4.42024 6.54443H1.93745C1.24989 7.90908 0.863037 9.44938 0.863037 11.0817C0.863037 12.7141 1.25109 14.2544 1.93745 15.619L1.93793 15.6186L5.29418 13.0148C5.29406 13.0144 5.29394 13.014 5.29382 13.0136C5.08997 12.4031 4.97805 11.7536 4.97805 11.0817Z" fill="#FFBB00"/>
<path d="M10.9631 0.981934C7.01555 0.981934 3.59641 3.24642 1.93335 6.54652L5.28996 9.15075C6.09077 6.75651 8.32694 4.98032 10.963 4.98032C12.4526 4.98032 13.7866 5.49343 14.8398 6.49592L17.7235 3.6146C15.9722 1.98322 13.6888 0.981934 10.9631 0.981934Z" fill="#FF4031"/>
</svg>
