<svg width="91" height="24" viewBox="0 0 91 24" fill="none" xmlns="http://www.w3.org/2000/svg">
<path d="M69.7126 6.57544H64.8451C64.5588 6.57544 64.2724 6.86176 64.1293 7.14809L62.125 19.7464C62.125 20.0327 62.2682 20.1759 62.5545 20.1759H65.1314C65.4177 20.1759 65.5609 20.0327 65.5609 19.7464L66.1335 16.1673C66.1335 15.881 66.4199 15.5947 66.8494 15.5947H68.4241C71.7169 15.5947 73.578 14.0199 74.0075 10.8703C74.2938 9.58185 74.0075 8.43655 73.4348 7.72074C72.5759 7.00493 71.2874 6.57544 69.7126 6.57544ZM70.2853 11.2998C69.9989 13.0178 68.7105 13.0178 67.422 13.0178H66.563L67.1357 9.72502C67.1357 9.58185 67.2788 9.43869 67.5652 9.43869H67.8515C68.7105 9.43869 69.5694 9.43869 69.9989 10.0113C70.2853 10.1545 70.2853 10.584 70.2853 11.2998Z" fill="#139AD6"/>
<path d="M34.6501 6.57544H29.7826C29.4963 6.57544 29.2099 6.86176 29.0668 7.14809L27.0625 19.7464C27.0625 20.0327 27.2057 20.1759 27.492 20.1759H29.7826C30.0689 20.1759 30.3552 19.8896 30.4984 19.6032L31.0711 16.1673C31.0711 15.881 31.3574 15.5947 31.7869 15.5947H33.3616C36.6544 15.5947 38.5155 14.0199 38.945 10.8703C39.2313 9.58185 38.945 8.43655 38.3723 7.72074C37.5134 7.00493 36.3681 6.57544 34.6501 6.57544ZM35.2228 11.2998C34.9364 13.0178 33.648 13.0178 32.3595 13.0178H31.6437L32.2164 9.72502C32.2164 9.58185 32.3595 9.43869 32.6458 9.43869H32.9322C33.7911 9.43869 34.6501 9.43869 35.0796 10.0113C35.2228 10.1545 35.3659 10.584 35.2228 11.2998Z" fill="#263B80"/>
<path d="M49.3945 11.1586H47.1039C46.9607 11.1586 46.6744 11.3018 46.6744 11.445L46.5312 12.1608L46.388 11.8745C45.8154 11.1586 44.8132 10.8723 43.6679 10.8723C41.091 10.8723 38.8004 12.8766 38.3709 15.5967C38.0846 17.0283 38.5141 18.3168 39.2299 19.1757C39.9457 20.0347 40.9479 20.321 42.2363 20.321C44.3838 20.321 45.5291 19.0326 45.5291 19.0326L45.3859 19.7484C45.3859 20.0347 45.5291 20.1779 45.8154 20.1779H47.9628C48.2491 20.1779 48.5355 19.8916 48.6786 19.6052L49.9671 11.5881C49.8239 11.445 49.5376 11.1586 49.3945 11.1586ZM46.1017 15.7398C45.8154 17.0283 44.8132 18.0304 43.3816 18.0304C42.6658 18.0304 42.0932 17.7441 41.8068 17.4578C41.5205 17.0283 41.3773 16.4557 41.3773 15.7398C41.5205 14.4514 42.6658 13.4492 43.9543 13.4492C44.6701 13.4492 45.0996 13.7356 45.5291 14.0219C45.9585 14.4514 46.1017 15.1672 46.1017 15.7398Z" fill="#263B80"/>
<path d="M84.3241 11.1586H82.0335C81.8904 11.1586 81.604 11.3018 81.604 11.445L81.4609 12.1608L81.3177 11.8745C80.7451 11.1586 79.7429 10.8723 78.5976 10.8723C76.0207 10.8723 73.7301 12.8766 73.3006 15.5967C73.0143 17.0283 73.4438 18.3168 74.1596 19.1757C74.8754 20.0347 75.8775 20.321 77.166 20.321C79.3134 20.321 80.4587 19.0326 80.4587 19.0326L80.3156 19.7484C80.3156 20.0347 80.4587 20.1779 80.7451 20.1779H82.8925C83.1788 20.1779 83.4652 19.8916 83.6083 19.6052L84.8968 11.5881C84.7536 11.445 84.6105 11.1586 84.3241 11.1586ZM81.0314 15.7398C80.7451 17.0283 79.7429 18.0304 78.3113 18.0304C77.5955 18.0304 77.0228 17.7441 76.7365 17.4578C76.4502 17.0283 76.307 16.4557 76.307 15.7398C76.4502 14.4514 77.5955 13.4492 78.884 13.4492C79.5998 13.4492 80.0293 13.7356 80.4587 14.0219C81.0314 14.4514 81.1746 15.1672 81.0314 15.7398Z" fill="#139AD6"/>
<path d="M61.836 11.1458H59.4023C59.1159 11.1458 58.9728 11.2889 58.8296 11.4321L55.68 16.2996L54.2484 11.7184C54.1052 11.4321 53.9621 11.2889 53.5326 11.2889H51.242C50.9557 11.2889 50.8125 11.5752 50.8125 11.8616L53.3894 19.4492L50.9557 22.8851C50.8125 23.1714 50.9557 23.6009 51.242 23.6009H53.5326C53.8189 23.6009 53.9621 23.4577 54.1052 23.3146L61.9792 12.0047C62.4087 11.5752 62.1223 11.1458 61.836 11.1458Z" fill="#263B80"/>
<path d="M87.0355 7.00387L85.0312 19.8885C85.0312 20.1748 85.1744 20.318 85.4607 20.318H87.465C87.7513 20.318 88.0377 20.0317 88.1808 19.7453L90.1851 7.14703C90.1851 6.8607 90.0419 6.71754 89.7556 6.71754H87.465C87.3218 6.57438 87.1787 6.71754 87.0355 7.00387Z" fill="#139AD6"/>
<path d="M16.4637 2.27776C15.4616 1.13246 13.6004 0.559814 11.0235 0.559814H3.86539C3.4359 0.559814 3.00641 0.9893 2.86325 1.41879L0 20.1731C0 20.6026 0.286325 20.8889 0.57265 20.8889H5.01069L6.15599 13.8739V14.1603C6.29915 13.7308 6.72864 13.3013 7.15813 13.3013H9.30556C13.4573 13.3013 16.6069 11.5833 17.609 6.85896C17.609 6.7158 17.609 6.57264 17.609 6.42947C17.4658 6.42947 17.4658 6.42947 17.609 6.42947C17.7522 4.56836 17.4658 3.42306 16.4637 2.27776Z" fill="#263B80"/>
<path d="M17.4706 6.43481C17.4706 6.57798 17.4706 6.72114 17.4706 6.8643C16.4684 11.7318 13.3189 13.3066 9.16714 13.3066H7.0197C6.59021 13.3066 6.16072 13.7361 6.01756 14.1656L4.58594 22.8985C4.58594 23.1848 4.7291 23.4712 5.15859 23.4712H8.88081C9.3103 23.4712 9.73979 23.1848 9.73979 22.7553V22.6122L10.4556 18.1741V17.8878C10.4556 17.4583 10.8851 17.172 11.3146 17.172H11.8872C15.4663 17.172 18.3295 15.7404 19.0454 11.4455C19.3317 9.72755 19.1885 8.15276 18.3295 7.15063C18.1864 6.8643 17.9001 6.57798 17.4706 6.43481Z" fill="#139AD6"/>
<path d="M16.4796 5.99711C16.3364 5.99711 16.1933 5.85395 16.0501 5.85395C15.9069 5.85395 15.7638 5.85395 15.6206 5.71079C15.0479 5.56762 14.4753 5.56763 13.7595 5.56763H8.17615C8.03299 5.56763 7.88982 5.56762 7.74666 5.71079C7.46034 5.85395 7.31717 6.14027 7.31717 6.4266L6.17188 13.871V14.1574C6.31504 13.7279 6.74452 13.2984 7.17401 13.2984H9.32145C13.4732 13.2984 16.6227 11.5805 17.6249 6.85609C17.6249 6.71293 17.6249 6.56976 17.768 6.4266C17.4817 6.28344 17.3386 6.14028 17.0522 6.14028C16.6227 5.99711 16.6227 5.99711 16.4796 5.99711Z" fill="#232C65"/>
</svg>
