<svg width="62" height="27" viewBox="0 0 62 27" fill="none" xmlns="http://www.w3.org/2000/svg">
<path d="M11.7579 3.37432C12.4841 2.46592 12.9769 1.24633 12.847 0C11.7839 0.0528894 10.4866 0.701415 9.73554 1.61041C9.06111 2.38894 8.46427 3.65961 8.61992 4.85365C9.81313 4.95714 11.0055 4.25717 11.7579 3.37432Z" fill="black"/>
<path d="M12.8286 5.08504C11.0955 4.98179 9.62197 6.06861 8.7943 6.06861C7.96626 6.06861 6.69884 5.13709 5.32805 5.16215C3.54391 5.18841 1.88844 6.19716 0.983054 7.80155C-0.879158 11.0112 0.491628 15.7722 2.30252 18.3862C3.18188 19.6794 4.24184 21.1034 5.63828 21.0522C6.95775 21.0004 7.47495 20.1978 9.07874 20.1978C10.6814 20.1978 11.1473 21.0522 12.544 21.0263C13.9925 21.0004 14.898 19.7324 15.7774 18.4379C16.7863 16.9636 17.1993 15.5401 17.2252 15.462C17.1991 15.4361 14.4321 14.3745 14.4065 11.1917C14.3803 8.52659 16.5789 7.25881 16.6824 7.18026C15.441 5.34419 13.5011 5.13709 12.8286 5.08504Z" fill="black"/>
<path d="M27.9123 1.46875C31.6791 1.46875 34.302 4.06527 34.302 7.84559C34.302 11.6394 31.625 14.2494 27.8178 14.2494H23.6473V20.8818H20.634V1.46875H27.9123ZM23.6472 11.7201H27.1046C29.7281 11.7201 31.2212 10.3077 31.2212 7.85909C31.2212 5.41075 29.7281 4.01154 27.1181 4.01154H23.6472V11.7201Z" fill="black"/>
<path d="M35.0872 16.8625C35.0872 14.387 36.9841 12.8668 40.3477 12.6785L44.222 12.4498V11.3602C44.222 9.78618 43.1591 8.84442 41.3836 8.84442C39.7015 8.84442 38.6522 9.65149 38.3969 10.9163H35.6524C35.8139 8.35998 37.9931 6.47656 41.4911 6.47656C44.9216 6.47656 47.1144 8.29275 47.1144 11.1313V20.8849H44.3294V18.5575H44.2624C43.4419 20.1317 41.6524 21.127 39.796 21.127C37.0246 21.127 35.0872 19.4049 35.0872 16.8625ZM44.2218 15.5845V14.4679L40.7374 14.6831C39.0019 14.8043 38.0199 15.5711 38.0199 16.7819C38.0199 18.0195 39.0423 18.8268 40.603 18.8268C42.6343 18.8265 44.2218 17.4274 44.2218 15.5845Z" fill="black"/>
<path d="M49.7442 26.0937V23.7393C49.9591 23.7931 50.4433 23.7931 50.6856 23.7931C52.0308 23.7931 52.7574 23.2281 53.2012 21.7752C53.2012 21.7482 53.457 20.9141 53.457 20.9007L48.345 6.73438H51.4927L55.0717 18.2504H55.1252L58.7042 6.73438H61.7712L56.4702 21.627C55.2599 25.0578 53.8606 26.1609 50.9279 26.1609C50.6856 26.1609 49.959 26.1339 49.7442 26.0937Z" fill="black"/>
</svg>
