<svg width="159" height="48" viewBox="0 0 159 48" fill="none" xmlns="http://www.w3.org/2000/svg">
<path d="M153.13 47.8916H6.57955C3.35544 47.8916 0.717529 45.2537 0.717529 42.0296V6.85749C0.717529 3.63338 3.35544 0.995474 6.57955 0.995474H153.13C156.354 0.995474 158.992 3.63338 158.992 6.85749V42.0296C158.992 45.2537 156.354 47.8916 153.13 47.8916Z" fill="black"/>
<path d="M153.13 0.995478H6.57955C3.35544 0.995478 0.717529 3.63338 0.717529 6.85749V42.0296C0.717529 45.2537 3.35544 47.8916 6.57955 47.8916H153.13C156.354 47.8916 158.992 45.2537 158.992 42.0296V6.85749C158.992 3.63338 156.354 0.995478 153.13 0.995478ZM153.13 1.9334C155.845 1.9334 158.054 4.14267 158.054 6.85749V42.0296C158.054 44.7449 155.845 46.9541 153.13 46.9541H6.57955C3.86473 46.9541 1.65545 44.7449 1.65545 42.0296V6.85749C1.65545 4.14267 3.86473 1.9334 6.57955 1.9334H153.13Z" fill="#A6A6A6"/>
<path d="M56.309 13.0012C56.309 13.9834 56.0182 14.7657 55.4356 15.3492C54.7739 16.043 53.9115 16.3901 52.8513 16.3901C51.836 16.3901 50.9727 16.0384 50.2628 15.334C49.5517 14.6301 49.1968 13.7573 49.1968 12.7158C49.1968 11.6739 49.5517 10.8015 50.2628 10.0971C50.9727 9.39324 51.836 9.04105 52.8513 9.04105C53.355 9.04105 53.8374 9.13953 54.2953 9.33602C54.7533 9.53299 55.1206 9.79443 55.3954 10.1219L54.7771 10.7406C54.3114 10.1841 53.6702 9.90616 52.8513 9.90616C52.1108 9.90616 51.4705 10.1663 50.9302 10.687C50.3897 11.2082 50.1196 11.8841 50.1196 12.7158C50.1196 13.5475 50.3897 14.2234 50.9302 14.7447C51.4705 15.2653 52.1108 15.5255 52.8513 15.5255C53.6368 15.5255 54.2917 15.2639 54.816 14.7401C55.1563 14.3988 55.3532 13.9245 55.4058 13.3153H52.8513V12.4703H56.26C56.293 12.654 56.309 12.8304 56.309 13.0012Z" fill="white"/>
<path d="M56.3086 13.0085H56.1914C56.1904 13.9683 55.9101 14.7138 55.3523 15.2735L55.351 15.2745L55.3505 15.2754C54.7098 15.9453 53.8863 16.2788 52.8508 16.2802C51.8626 16.2788 51.0355 15.9417 50.3448 15.2584C49.6557 14.5737 49.3149 13.7379 49.3136 12.7231C49.3149 11.7078 49.6557 10.8725 50.3448 10.1882C51.0355 9.50449 51.8626 9.16696 52.8508 9.16555C53.3395 9.16555 53.8048 9.26087 54.2486 9.45091C54.6928 9.64237 55.0437 9.89326 55.3051 10.2048L55.3949 10.1292L55.3121 10.0463L54.6937 10.6654L54.7766 10.7478L54.8669 10.6728C54.3795 10.0888 53.6954 9.79443 52.8508 9.79619C52.0829 9.79525 51.4074 10.0696 50.8486 10.6101C50.2844 11.1523 50.001 11.8662 50.0019 12.7231C50.001 13.58 50.2844 14.2939 50.8486 14.8361C51.4074 15.3766 52.0829 15.6509 52.8508 15.65C53.6624 15.6514 54.354 15.3761 54.8984 14.8303C55.2621 14.4656 55.4682 13.9606 55.5223 13.3326L55.5332 13.2053H52.9681V12.5948H56.2596V12.4776L56.1441 12.4982C56.1762 12.676 56.1914 12.8449 56.1914 13.0085H56.3086H56.4258C56.4258 12.8303 56.4093 12.6471 56.375 12.4566L56.3576 12.3604H52.7336V13.3225V13.4398H55.4054V13.3225L55.2886 13.3125C55.2369 13.9024 55.0491 14.3466 54.7327 14.6645C54.2289 15.1664 53.6107 15.4141 52.8508 15.4155C52.1378 15.4146 51.5328 15.1691 51.0112 14.6676C50.4947 14.168 50.2377 13.5301 50.2364 12.7231C50.2377 11.9161 50.4947 11.2782 51.0112 10.7785C51.5328 10.2771 52.1378 10.0316 52.8508 10.0307C53.6436 10.0325 54.2422 10.2945 54.6869 10.8234L54.7694 10.9215L55.4778 10.212L55.5538 10.1361L55.4846 10.054C55.1966 9.7106 54.8129 9.43802 54.3411 9.23566C53.8685 9.03272 53.3697 8.93107 52.8508 8.93107C51.8086 8.93013 50.9091 9.29651 50.1795 10.0215C49.4472 10.7451 49.0782 11.6547 49.0791 12.7231C49.0782 13.791 49.4472 14.7011 50.18 15.4251C50.9091 16.1497 51.8086 16.5156 52.8508 16.5146C53.9362 16.5156 54.8366 16.1551 55.5199 15.4374L55.4352 15.3564L55.5181 15.4393C56.1254 14.8325 56.4267 14.0127 56.4258 13.0085H56.3086Z" fill="white"/>
<path d="M61.7162 10.0678H58.5127V12.2982H61.4016V13.1435H58.5127V15.3739H61.7162V16.238H57.6096V9.20362H61.7162V10.0678Z" fill="white"/>
<path d="M61.7089 10.0682V9.95099H58.3882V12.4159H61.2771V13.0263L58.3882 13.0267V15.4915H61.5917V16.1212H57.7196V9.32129H61.5917V10.0682H61.7089V9.95099V10.0682H61.8262V9.20405V9.08681H57.4851V16.3557H61.8262V15.3743V15.2571H58.6227V13.2612H61.5116V12.2986V12.1814H58.6227V10.1855H61.8262V10.0682H61.7089Z" fill="white"/>
<path d="M65.525 16.238H64.6205V10.0678H62.6558V9.20362H67.4897V10.0678H65.525V16.238Z" fill="white"/>
<path d="M65.5316 16.2385V16.1212H64.7444V9.95099H62.7796V9.32129H67.3791V9.95099H65.4144V16.2385H65.5316V16.1212V16.2385H65.6489V10.1855H67.6136V9.20405V9.08681H62.5452V10.0682V10.1855H64.5099V16.3557H65.5316H65.6489V16.2385H65.5316Z" fill="white"/>
<path d="M70.9856 16.238V9.20362H71.8892V16.238H70.9856Z" fill="white"/>
<path d="M70.9854 16.2385H71.1026V9.32129H71.7717V16.1212H70.9854V16.2385H71.1026H70.9854V16.3557H71.889H72.0062V9.08681H70.9854H70.8682V16.3557H70.9854V16.2385Z" fill="white"/>
<path d="M75.9008 16.238H74.9963V10.0678H73.0317V9.20362H77.8655V10.0678H75.9008V16.238Z" fill="white"/>
<path d="M75.9007 16.2385V16.1212H75.1134V9.95099H73.1488V9.32129H77.7481V9.95099H75.7834V16.2385H75.9007V16.1212V16.2385H76.0179V10.1855H77.9826V9.20405V9.08681H72.9143V10.0682V10.1855H74.8789V16.3557H75.9007H76.0179V16.2385H75.9007Z" fill="white"/>
<path d="M82.5261 14.7351C83.0468 15.2622 83.6839 15.5255 84.4373 15.5255C85.1906 15.5255 85.8281 15.2622 86.3479 14.7351C86.8691 14.2079 87.1302 13.5342 87.1302 12.7158C87.1302 11.8975 86.8691 11.2237 86.3479 10.6966C85.8281 10.1695 85.1906 9.90616 84.4373 9.90616C83.6839 9.90616 83.0468 10.1695 82.5261 10.6966C82.0063 11.2237 81.7453 11.8975 81.7453 12.7158C81.7453 13.5342 82.0063 14.2079 82.5261 14.7351ZM87.0165 15.324C86.3249 16.0351 85.4649 16.3901 84.4373 16.3901C83.4086 16.3901 82.549 16.0351 81.8589 15.324C81.1668 14.6136 80.8225 13.744 80.8225 12.7158C80.8225 11.6876 81.1668 10.8179 81.8589 10.1077C82.549 9.3964 83.4086 9.04105 84.4373 9.04105C85.4595 9.04105 86.3172 9.39828 87.012 10.1123C87.7058 10.8263 88.053 11.6941 88.053 12.7158C88.053 13.744 87.7066 14.6136 87.0165 15.324Z" fill="white"/>
<path d="M82.5259 14.7423L82.4426 14.8247C82.9826 15.373 83.6562 15.6514 84.4371 15.65C85.2174 15.6514 85.892 15.373 86.4311 14.8247C86.9746 14.2761 87.248 13.5662 87.2472 12.7231C87.248 11.88 86.9746 11.1701 86.4311 10.6214C85.892 10.0732 85.2174 9.79478 84.4371 9.79619C83.6562 9.79478 82.9826 10.0732 82.4426 10.6214C81.9003 11.1701 81.6265 11.88 81.6279 12.7231C81.6265 13.5662 81.9003 14.2761 82.4426 14.8247L82.5259 14.7423L82.6093 14.6599C82.112 14.1538 81.8633 13.5172 81.8624 12.7231C81.8633 11.929 82.112 11.2924 82.6093 10.7863C83.1112 10.2803 83.7106 10.0321 84.4371 10.0307C85.1629 10.0321 85.7638 10.2803 86.2644 10.7863C86.7626 11.2924 87.0113 11.929 87.0123 12.7231C87.0113 13.5172 86.7626 14.1538 86.2644 14.6599C85.7638 15.1659 85.1629 15.4141 84.4371 15.4155C83.7106 15.4141 83.1112 15.1659 82.6093 14.6599L82.5259 14.7423ZM87.0164 15.3312L86.9325 15.2497C86.2603 15.9385 85.4382 16.2788 84.4371 16.2802C83.4355 16.2788 82.6134 15.9385 81.9424 15.2497L81.9393 15.2461L81.9424 15.2497C81.2716 14.5586 80.9405 13.7251 80.9396 12.7231C80.9405 11.721 81.2716 10.8876 81.9424 10.1965C82.6134 9.50766 83.4355 9.16696 84.4371 9.16556C85.4317 9.16696 86.252 9.50907 86.928 10.2015C87.6012 10.8958 87.9341 11.728 87.9355 12.7231C87.9341 13.7251 87.6021 14.5586 86.9325 15.2497L87.0164 15.3312L87.1007 15.4127C87.8114 14.6828 88.1708 13.7773 88.17 12.7231C88.1708 11.6749 87.81 10.7713 87.096 10.0381C86.3816 9.30202 85.4867 8.92979 84.4371 8.93108C83.3819 8.92979 82.4843 9.30026 81.7744 10.0335V10.033C81.0623 10.7634 80.7041 11.6689 80.7051 12.7231C80.7041 13.7773 81.0623 14.6828 81.7744 15.4132L81.7776 15.4165L81.7744 15.4127C82.4843 16.1459 83.3819 16.5156 84.4371 16.5146C85.4918 16.5156 86.3894 16.1459 87.1007 15.4127L87.0164 15.3312Z" fill="white"/>
<path d="M89.3252 16.238V9.20362H90.4253L93.844 14.6759H93.8829L93.844 13.3203V9.20362H94.7485V16.238H93.8051L90.2283 10.5005H90.1894L90.2283 11.8566V16.238H89.3252Z" fill="white"/>
<path d="M89.325 16.2385H89.4422V9.32129H90.36L93.7787 14.7936H93.8827H94.0031L93.961 13.319V9.32129H94.6311V16.1212H93.8699L90.2932 10.3837H90.1892H90.0688L90.1109 11.859V16.1212H89.325V16.2385H89.4422H89.325V16.3557H90.2281H90.3453V11.8552L90.3064 10.4978L90.1892 10.501V10.6182H90.2281V10.501L90.1287 10.5633L93.7398 16.3557H94.7483H94.8655V9.08681H93.8438H93.7265V13.3221L93.7655 14.6795L93.8827 14.6764V14.5591H93.8438V14.6764L93.9432 14.6141L90.49 9.08681H89.325H89.2078V16.3557H89.325V16.2385Z" fill="white"/>
<path d="M126.085 36.1722H128.273V21.5158H126.085V36.1722ZM145.789 26.7953L143.282 33.1496H143.207L140.604 26.7953H138.247L142.15 35.6766L139.925 40.6168H142.208L148.222 26.7953H145.789ZM133.383 34.5075C132.666 34.5075 131.667 34.1494 131.667 33.2628C131.667 32.1315 132.912 31.6979 133.986 31.6979C134.948 31.6979 135.4 31.9053 135.985 32.1884C135.815 33.5458 134.646 34.5075 133.383 34.5075ZM133.647 26.4747C132.063 26.4747 130.423 27.1726 129.744 28.7188L131.685 29.5294C132.1 28.7188 132.873 28.4545 133.684 28.4545C134.816 28.4545 135.966 29.1337 135.985 30.3405V30.4911C135.588 30.2648 134.741 29.9255 133.703 29.9255C131.61 29.9255 129.479 31.0754 129.479 33.2252C129.479 35.1862 131.195 36.4497 133.118 36.4497C134.589 36.4497 135.4 35.7898 135.91 35.0168H135.985V36.148H138.096V30.5286C138.096 27.9269 136.155 26.4747 133.647 26.4747ZM120.127 28.5795H117.015V23.5556H120.127C121.762 23.5556 122.691 24.9098 122.691 26.0675C122.691 27.2033 121.762 28.5795 120.127 28.5795ZM120.07 21.5158H114.829V36.1722H117.015V30.6194H120.07C122.495 30.6194 124.878 28.8639 124.878 26.0675C124.878 23.2712 122.495 21.5158 120.07 21.5158ZM91.4861 34.5102C89.9748 34.5102 88.7094 33.2448 88.7094 31.5069C88.7094 29.7506 89.9748 28.466 91.4861 28.466C92.9782 28.466 94.1492 29.7506 94.1492 31.5069C94.1492 33.2448 92.9782 34.5102 91.4861 34.5102ZM93.9981 27.616H93.9225C93.4316 27.0306 92.4867 26.5018 91.297 26.5018C88.8038 26.5018 86.5185 28.6926 86.5185 31.5069C86.5185 34.3024 88.8038 36.4745 91.297 36.4745C92.4867 36.4745 93.4316 35.9455 93.9225 35.3415H93.9981V36.0591C93.9981 37.9671 92.9782 38.9869 91.335 38.9869C89.994 38.9869 89.1629 38.0233 88.8225 37.2113L86.9151 38.0046C87.4629 39.3267 88.9174 40.9512 91.335 40.9512C93.9037 40.9512 96.0758 39.4398 96.0758 35.7568V26.804H93.9981V27.616ZM97.5867 36.1722H99.7777V21.5153H97.5867V36.1722ZM103.008 31.337C102.951 29.4103 104.5 28.4284 105.614 28.4284C106.483 28.4284 107.22 28.8625 107.465 29.4864L103.008 31.337ZM109.807 29.675C109.392 28.5603 108.126 26.5018 105.538 26.5018C102.97 26.5018 100.836 28.5228 100.836 31.4881C100.836 34.2836 102.951 36.4745 105.784 36.4745C108.07 36.4745 109.392 35.0767 109.94 34.2647L108.24 33.1312C107.673 33.9625 106.899 34.5102 105.784 34.5102C104.67 34.5102 103.877 34.0001 103.366 32.9993L110.034 30.2415L109.807 29.675ZM56.6878 28.0318V30.1471H61.7496C61.5985 31.337 61.2019 32.2057 60.5974 32.8102C59.861 33.5471 58.7088 34.3591 56.6878 34.3591C53.5712 34.3591 51.1348 31.8471 51.1348 28.7306C51.1348 25.6141 53.5712 23.1018 56.6878 23.1018C58.3689 23.1018 59.5963 23.763 60.503 24.613L61.9951 23.121C60.7297 21.9119 59.0485 20.9864 56.6878 20.9864C52.4189 20.9864 48.8303 24.4619 48.8303 28.7306C48.8303 32.9993 52.4189 36.4745 56.6878 36.4745C58.9922 36.4745 60.7297 35.7193 62.0895 34.3024C63.4872 32.9046 63.9218 30.9404 63.9218 29.354C63.9218 28.8625 63.8842 28.4096 63.8082 28.0318H56.6878ZM69.6767 34.5102C68.1654 34.5102 66.862 33.2636 66.862 31.4881C66.862 29.6938 68.1654 28.466 69.6767 28.466C71.1875 28.466 72.4908 29.6938 72.4908 31.4881C72.4908 33.2636 71.1875 34.5102 69.6767 34.5102ZM69.6767 26.5018C66.9187 26.5018 64.671 28.5983 64.671 31.4881C64.671 34.3591 66.9187 36.4745 69.6767 36.4745C72.4341 36.4745 74.6818 34.3591 74.6818 31.4881C74.6818 28.5983 72.4341 26.5018 69.6767 26.5018ZM80.5955 34.5102C79.0848 34.5102 77.7813 33.2636 77.7813 31.4881C77.7813 29.6938 79.0848 28.466 80.5955 28.466C82.1064 28.466 83.4098 29.6938 83.4098 31.4881C83.4098 33.2636 82.1064 34.5102 80.5955 34.5102ZM80.5955 26.5018C77.8377 26.5018 75.5904 28.5983 75.5904 31.4881C75.5904 34.3591 77.8377 36.4745 80.5955 36.4745C83.353 36.4745 85.6008 34.3591 85.6008 31.4881C85.6008 28.5983 83.353 26.5018 80.5955 26.5018Z" fill="white"/>
<path d="M13.0403 38.9783L12.9532 38.8949C12.6121 38.5339 12.4106 37.9734 12.4106 37.2476V37.4184V11.4895C12.4106 11.4872 12.4106 11.4854 12.4106 11.4835C12.4106 11.4858 12.4106 11.4876 12.4106 11.49V11.6613C12.4106 10.8753 12.6455 10.2832 13.0389 9.92823L27.5648 24.4537L13.0403 38.9783ZM12.4106 11.4821C12.4106 11.4175 12.4124 11.3548 12.4157 11.293C12.4124 11.3543 12.4106 11.4175 12.4106 11.4821ZM12.4157 11.2902C12.4157 11.2894 12.4157 11.2885 12.416 11.2875C12.4157 11.2885 12.4157 11.2894 12.4157 11.2902ZM12.416 11.282C12.416 11.2815 12.416 11.2811 12.416 11.2806C12.416 11.2811 12.416 11.2815 12.416 11.282Z" fill="url(#paint0_linear_2_2317)"/>
<path d="M32.4027 29.4583L32.5132 29.3955L38.2496 26.1361C38.7965 25.8252 39.161 25.4483 39.3429 25.0494C39.1615 25.4483 38.7969 25.8257 38.2496 26.1366L32.5132 29.396L32.4027 29.4583ZM32.4041 29.2865L27.5615 24.4431L32.4037 19.6005L38.2496 22.9216C38.992 23.3435 39.4088 23.8871 39.4784 24.4426C39.4784 24.4431 39.4784 24.444 39.4784 24.4448C39.4088 24.999 38.992 25.5431 38.2496 25.9648L32.4041 29.2865Z" fill="url(#paint1_linear_2_2317)"/>
<path d="M14.0808 39.5229C13.675 39.5229 13.3209 39.3911 13.0448 39.1419L13.0453 39.1414C13.3214 39.3906 13.6759 39.5229 14.0817 39.5229C14.1169 39.5229 14.1526 39.522 14.1889 39.5203C14.1522 39.522 14.1159 39.5229 14.0808 39.5229ZM14.0812 39.3512C13.6755 39.3517 13.3214 39.2193 13.0453 38.9702V38.9698L27.5697 24.4453L32.4123 29.2887L15.3947 38.9578C14.9238 39.2248 14.4777 39.3512 14.0812 39.3512ZM13.0412 39.1388C13.0155 39.1154 12.9903 39.0907 12.9656 39.065L13.0412 39.1388Z" fill="url(#paint2_linear_2_2317)"/>
<path d="M27.5581 24.449L13.0322 9.92349C13.3083 9.67482 13.6619 9.54292 14.0672 9.54292C14.4648 9.54292 14.9112 9.66978 15.383 9.9372L32.4002 19.6064L27.5581 24.449ZM32.5097 19.497L15.383 9.76603C14.9112 9.49849 14.4648 9.37164 14.0672 9.37164C14.0653 9.37164 14.0641 9.37164 14.0622 9.37164C14.0645 9.37164 14.0663 9.37164 14.0691 9.37164C14.4657 9.37164 14.9117 9.49802 15.383 9.76556L32.5097 19.497Z" fill="url(#paint3_linear_2_2317)"/>
<path d="M14.1838 39.5203C14.5524 39.4992 14.9605 39.3723 15.3896 39.1292L32.4059 29.4605L15.3896 39.1292C14.9609 39.3728 14.5524 39.4992 14.1838 39.5203ZM13.0398 39.1419L13.0361 39.1388C13.0374 39.1397 13.0388 39.141 13.0398 39.1419ZM12.9605 39.065L12.9531 39.0578V39.0573C12.9559 39.06 12.9582 39.0627 12.9605 39.065Z" fill="black"/>
<path d="M32.4116 29.4583L32.5221 29.3955L32.4116 29.4583Z" fill="url(#paint4_linear_2_2317)"/>
<path d="M14.0788 39.5229C13.6731 39.5229 13.3185 39.3906 13.0424 39.1414L13.042 39.1419C13.041 39.141 13.0396 39.1397 13.0383 39.1388L12.9627 39.065C12.9604 39.0627 12.9581 39.06 12.9553 39.0573L13.0424 38.9702C13.3185 39.2193 13.6726 39.3517 14.0784 39.3512C14.4749 39.3512 14.921 39.2248 15.3918 38.9578L32.4095 29.2887L32.5185 29.3977L32.4081 29.4604L15.3918 39.1291C14.9627 39.3723 14.5546 39.4991 14.186 39.5203C14.1498 39.522 14.114 39.5229 14.0788 39.5229Z" fill="url(#paint5_linear_2_2317)"/>
<path d="M12.9564 39.0503C12.6152 38.6893 12.4138 38.1288 12.4138 37.403V37.4025C12.4138 38.1288 12.6152 38.6888 12.9564 39.0498V39.0503Z" fill="black"/>
<path d="M12.9532 39.0554C12.6121 38.6944 12.4106 38.1344 12.4106 37.4081V37.2373C12.4106 37.9631 12.6121 38.5236 12.9532 38.8846L13.0403 38.968L12.9532 39.0554Z" fill="url(#paint6_linear_2_2317)"/>
<path d="M12.9553 39.0554L13.0424 38.968V38.9683L12.9553 39.0554Z" fill="url(#paint7_linear_2_2317)"/>
<path d="M39.3459 25.0449C39.4361 24.847 39.4815 24.6437 39.4815 24.4403C39.4815 24.44 39.4815 24.4395 39.4815 24.4395C39.4815 24.6433 39.4361 24.8466 39.3459 25.0449Z" fill="black"/>
<path d="M32.5207 29.3914L32.4116 29.2823L38.2571 25.9607C38.9995 25.539 39.4163 24.9948 39.4859 24.4407C39.4859 24.6441 39.4405 24.8474 39.3504 25.0453C39.1685 25.4441 38.804 25.821 38.2571 26.132L32.5207 29.3914Z" fill="url(#paint8_linear_2_2317)"/>
<path d="M39.4818 24.4436V24.4431C39.4814 23.8299 39.0715 23.2167 38.253 22.7514L32.5166 19.492H32.5161L32.5166 19.4916L38.253 22.7509C39.0724 23.2162 39.4828 23.8303 39.4818 24.4436Z" fill="#404040"/>
<path d="M39.4864 24.449C39.4167 23.8935 38.9999 23.3498 38.2576 22.928L32.4116 19.6068L32.5207 19.4978H32.5211L38.2576 22.7572C39.076 23.2225 39.4859 23.8357 39.4864 24.449Z" fill="url(#paint9_linear_2_2317)"/>
<path d="M12.4138 11.4751C12.4138 11.4746 12.4138 11.4742 12.4138 11.4737C12.4138 11.4742 12.4138 11.4746 12.4138 11.4751ZM12.4189 11.2846C12.4189 11.2836 12.4189 11.2827 12.4189 11.2818C12.4189 11.2827 12.4189 11.2836 12.4189 11.2846ZM12.4192 11.2791C12.4192 11.2772 12.4192 11.2754 12.4192 11.2736C12.4192 11.2754 12.4192 11.2772 12.4192 11.2791ZM12.4192 11.2722C12.4871 10.0677 13.142 9.37204 14.0684 9.36794C13.6668 9.37028 13.3169 9.50218 13.043 9.74897V9.7485L13.0398 9.75178C13.0109 9.77781 12.9835 9.80536 12.9564 9.83373C12.6486 10.1593 12.4545 10.647 12.4192 11.2722Z" fill="#404040"/>
<path d="M12.4106 11.6406V11.4693C12.4106 11.467 12.4106 11.4651 12.4106 11.4629C12.4106 11.4624 12.4106 11.462 12.4106 11.4615C12.4106 11.3969 12.4124 11.3337 12.4157 11.2724C12.4157 11.2714 12.4157 11.2705 12.4157 11.2696C12.4157 11.2687 12.4157 11.2678 12.416 11.2669C12.416 11.265 12.416 11.2632 12.416 11.2614C12.416 11.2609 12.416 11.2604 12.416 11.2599C12.4513 10.6348 12.6455 10.1471 12.9532 9.82152L13.0389 9.90758C12.6455 10.2626 12.4106 10.8546 12.4106 11.6406ZM13.0366 9.73957L13.0399 9.73629C13.0389 9.7377 13.0375 9.73863 13.0366 9.73957Z" fill="url(#paint10_linear_2_2317)"/>
<path d="M32.409 19.5991L15.3918 9.92996C14.92 9.66254 14.4736 9.53568 14.076 9.53568C13.6707 9.53568 13.3171 9.66758 13.041 9.91624L12.9553 9.83019C12.9824 9.80182 13.0098 9.77426 13.0387 9.74824C13.0396 9.7473 13.041 9.74636 13.042 9.74542C13.3158 9.49863 13.6657 9.36674 14.0673 9.36439C14.0683 9.36439 14.0696 9.36439 14.071 9.36439C14.0729 9.36439 14.0741 9.36439 14.076 9.36439C14.4736 9.36439 14.92 9.49125 15.3918 9.75879L32.5185 19.4897L32.518 19.4901L32.409 19.5991Z" fill="url(#paint11_linear_2_2317)"/>
<defs>
<linearGradient id="paint0_linear_2_2317" x1="26.2768" y1="11.216" x2="6.60092" y2="30.8919" gradientUnits="userSpaceOnUse">
<stop stop-color="#00A0FF"/>
<stop offset="0.00657445" stop-color="#00A1FF"/>
<stop offset="0.2601" stop-color="#00BEFF"/>
<stop offset="0.5122" stop-color="#00D2FF"/>
<stop offset="0.7604" stop-color="#00DFFF"/>
<stop offset="1" stop-color="#00E3FF"/>
</linearGradient>
<linearGradient id="paint1_linear_2_2317" x1="40.3829" y1="24.4438" x2="12.0143" y2="24.4438" gradientUnits="userSpaceOnUse">
<stop stop-color="#FFE000"/>
<stop offset="0.4087" stop-color="#FFBD00"/>
<stop offset="0.7754" stop-color="#FFA500"/>
<stop offset="1" stop-color="#FF9C00"/>
</linearGradient>
<linearGradient id="paint2_linear_2_2317" x1="29.8308" y1="27.1363" x2="3.14892" y2="53.8182" gradientUnits="userSpaceOnUse">
<stop stop-color="#FF3A44"/>
<stop offset="1" stop-color="#C31162"/>
</linearGradient>
<linearGradient id="paint3_linear_2_2317" x1="9.26729" y1="1.20655" x2="21.1818" y2="13.1211" gradientUnits="userSpaceOnUse">
<stop stop-color="#32A071"/>
<stop offset="0.0685" stop-color="#2DA771"/>
<stop offset="0.4762" stop-color="#15CF74"/>
<stop offset="0.8009" stop-color="#06E775"/>
<stop offset="1" stop-color="#00F076"/>
</linearGradient>
<linearGradient id="paint4_linear_2_2317" x1="40.3915" y1="24.4437" x2="12.024" y2="24.4437" gradientUnits="userSpaceOnUse">
<stop stop-color="#CCB300"/>
<stop offset="0.4087" stop-color="#CC9700"/>
<stop offset="0.7754" stop-color="#CC8400"/>
<stop offset="1" stop-color="#CC7D00"/>
</linearGradient>
<linearGradient id="paint5_linear_2_2317" x1="29.828" y1="27.1363" x2="3.14605" y2="53.8182" gradientUnits="userSpaceOnUse">
<stop stop-color="#CC2E36"/>
<stop offset="1" stop-color="#9C0E4E"/>
</linearGradient>
<linearGradient id="paint6_linear_2_2317" x1="26.2768" y1="11.2057" x2="6.60091" y2="30.8815" gradientUnits="userSpaceOnUse">
<stop stop-color="#008DE0"/>
<stop offset="0.00657445" stop-color="#008DE0"/>
<stop offset="0.2601" stop-color="#00A7E0"/>
<stop offset="0.5122" stop-color="#00B8E0"/>
<stop offset="0.7604" stop-color="#00C4E0"/>
<stop offset="1" stop-color="#00C7E0"/>
</linearGradient>
<linearGradient id="paint7_linear_2_2317" x1="29.8281" y1="27.135" x2="3.14752" y2="53.8172" gradientUnits="userSpaceOnUse">
<stop stop-color="#E0333C"/>
<stop offset="1" stop-color="#AB0F56"/>
</linearGradient>
<linearGradient id="paint8_linear_2_2317" x1="40.3904" y1="24.4396" x2="12.0218" y2="24.4396" gradientUnits="userSpaceOnUse">
<stop stop-color="#E0C500"/>
<stop offset="0.4087" stop-color="#E0A600"/>
<stop offset="0.7754" stop-color="#E09100"/>
<stop offset="1" stop-color="#E08900"/>
</linearGradient>
<linearGradient id="paint9_linear_2_2317" x1="40.3909" y1="24.4501" x2="12.0222" y2="24.4501" gradientUnits="userSpaceOnUse">
<stop stop-color="#FFE840"/>
<stop offset="0.4087" stop-color="#FFCE40"/>
<stop offset="0.7754" stop-color="#FFBC40"/>
<stop offset="1" stop-color="#FFB540"/>
</linearGradient>
<linearGradient id="paint10_linear_2_2317" x1="26.2768" y1="11.1953" x2="6.6009" y2="30.8712" gradientUnits="userSpaceOnUse">
<stop stop-color="#40B8FF"/>
<stop offset="0.00657445" stop-color="#40B9FF"/>
<stop offset="0.2601" stop-color="#40CEFF"/>
<stop offset="0.5122" stop-color="#40DDFF"/>
<stop offset="0.7604" stop-color="#40E7FF"/>
<stop offset="1" stop-color="#40EAFF"/>
</linearGradient>
<linearGradient id="paint11_linear_2_2317" x1="9.27609" y1="1.19931" x2="21.1906" y2="13.1139" gradientUnits="userSpaceOnUse">
<stop stop-color="#65B895"/>
<stop offset="0.0685" stop-color="#62BD95"/>
<stop offset="0.4762" stop-color="#50DB97"/>
<stop offset="0.8009" stop-color="#44ED98"/>
<stop offset="1" stop-color="#40F498"/>
</linearGradient>
</defs>
</svg>
