<svg width="62" height="20" viewBox="0 0 62 20" fill="none" xmlns="http://www.w3.org/2000/svg">
<path d="M22.5426 18.8018L25.6268 1.45312H30.4459L27.4581 18.8018H22.5426Z" fill="#3C58BF"/>
<path d="M22.5426 18.8018L26.4942 1.45312H30.4459L27.4581 18.8018H22.5426Z" fill="#293688"/>
<path d="M44.8985 1.64605C43.9347 1.26053 42.3926 0.875 40.4649 0.875C35.6458 0.875 32.1761 3.28454 32.1761 6.75427C32.1761 9.35658 34.5856 10.7059 36.5133 11.5734C38.4409 12.4408 39.0192 13.0191 39.0192 13.7901C39.0192 14.9467 37.4771 15.525 36.1278 15.525C34.2001 15.525 33.1399 15.2359 31.5014 14.5612L30.8268 14.272L30.1521 18.2237C31.3087 18.7056 33.4291 19.1875 35.6458 19.1875C40.7541 19.1875 44.1274 16.778 44.1274 13.1155C44.1274 11.0914 42.8745 9.54934 39.983 8.29638C38.2481 7.42894 37.188 6.94704 37.188 6.0796C37.188 5.30855 38.0554 4.5375 39.983 4.5375C41.6215 4.5375 42.7781 4.82664 43.6455 5.21217L44.1274 5.40493L44.8985 1.64605Z" fill="#3C58BF"/>
<path d="M44.8985 1.64605C43.9347 1.26053 42.3926 0.875 40.4649 0.875C35.6458 0.875 33.0435 3.28454 33.0435 6.75427C33.0435 9.35658 34.5856 10.7059 36.5133 11.5734C38.4409 12.4408 39.0192 13.0191 39.0192 13.7901C39.0192 14.9467 37.4771 15.525 36.1278 15.525C34.2001 15.525 33.1399 15.2359 31.5014 14.5612L30.8268 14.272L30.1521 18.2237C31.3087 18.7056 33.4291 19.1875 35.6458 19.1875C40.7541 19.1875 44.1274 16.778 44.1274 13.1155C44.1274 11.0914 42.8745 9.54934 39.983 8.29638C38.2481 7.42894 37.188 6.94704 37.188 6.0796C37.188 5.30855 38.0554 4.5375 39.983 4.5375C41.6215 4.5375 42.7781 4.82664 43.6455 5.21217L44.1274 5.40493L44.8985 1.64605Z" fill="#293688"/>
<path d="M53.1912 1.45312C52.0346 1.45312 51.1672 1.54951 50.6853 2.70609L43.4567 18.8018H48.6613L49.6251 15.9104H55.7935L56.3718 18.8018H60.9981L56.9501 1.45312H53.1912ZM50.9744 13.0189C51.2636 12.1515 52.9021 7.91069 52.9021 7.91069C52.9021 7.91069 53.2876 6.85049 53.5767 6.17582L53.8659 7.81431C53.8659 7.81431 54.8297 12.1515 55.0225 13.1153H50.9744V13.0189Z" fill="#3C58BF"/>
<path d="M54.3478 1.45312C53.1912 1.45312 52.3238 1.54951 51.8419 2.70609L43.4567 18.8018H48.6613L49.6251 15.9104H55.7935L56.3718 18.8018H60.9981L56.9501 1.45312H54.3478ZM50.9744 13.0189C51.36 12.0551 52.9021 7.91069 52.9021 7.91069C52.9021 7.91069 53.2876 6.85049 53.5767 6.17582L53.8659 7.81431C53.8659 7.81431 54.8297 12.1515 55.0225 13.1153H50.9744V13.0189Z" fill="#293688"/>
<path d="M13.6775 13.6024L13.1956 11.0965C12.3281 8.20501 9.53306 5.02442 6.44885 3.48232L10.786 18.9034H15.9906L23.7975 1.55469H18.5929L13.6775 13.6024Z" fill="#3C58BF"/>
<path d="M13.6775 13.6024L13.1956 11.0965C12.3281 8.20501 9.53306 5.02442 6.44885 3.48232L10.786 18.9034H15.9906L23.7975 1.55469H19.5567L13.6775 13.6024Z" fill="#293688"/>
<path d="M0.276978 1.45312L1.14441 1.64589C7.31283 3.09161 11.5536 6.75411 13.1921 11.0913L11.4572 2.89885C11.1681 1.74227 10.3007 1.45312 9.24046 1.45312H0.276978Z" fill="#FFBC00"/>
<path d="M0.276978 1.45312C6.4454 2.89885 11.5536 6.65773 13.1921 10.9949L11.5536 4.15181C11.2645 2.99523 10.3007 2.32056 9.24046 2.32056L0.276978 1.45312Z" fill="#F7981D"/>
<path d="M0.276978 1.45312C6.4454 2.89885 11.5536 6.65773 13.1921 10.9949L12.0355 7.23602C11.7464 6.07944 11.3609 4.92286 10.0115 4.44095L0.276978 1.45312Z" fill="#ED7C00"/>
<path d="M18.4861 13.021L15.2091 9.744L13.667 13.4065L13.2815 10.997C12.4141 8.10551 9.619 4.92492 6.53479 3.38281L10.872 18.8039H16.0766L18.4861 13.021Z" fill="#051244"/>
<path d="M27.4581 18.8033L23.3137 14.5625L22.5426 18.8033H27.4581Z" fill="#051244"/>
<path d="M38.5372 12.8281C38.9227 13.2137 39.1155 13.5028 39.0191 13.8883C39.0191 15.0449 37.477 15.6232 36.1276 15.6232C34.2 15.6232 33.1398 15.334 31.5013 14.6594L30.8266 14.3702L30.152 18.3219C31.3086 18.8038 33.429 19.2857 35.6457 19.2857C38.7299 19.2857 41.2359 18.4183 42.6816 16.8762L38.5372 12.8281Z" fill="#051244"/>
<path d="M44.1364 18.8057H48.6663L49.6301 15.9142H55.7985L56.3768 18.8057H61.0031L59.3646 11.7698L53.5817 6.17969L53.8709 7.72179C53.8709 7.72179 54.8347 12.059 55.0275 13.0228H50.9794C51.365 12.059 52.9071 7.91455 52.9071 7.91455C52.9071 7.91455 53.2926 6.85436 53.5817 6.17969" fill="#051244"/>
</svg>
